<svg width="40" height="50" viewBox="0 0 40 50" fill="none" xmlns="http://www.w3.org/2000/svg">
<path fill-rule="evenodd" clip-rule="evenodd" d="M20.25 0H3C1.34315 0 0 1.34315 0 3V47C0 48.6569 1.34315 50 3 50H37C38.6569 50 40 48.6569 40 47V18.75H24C21.9289 18.75 20.25 17.0711 20.25 15V0ZM21.75 0.0795461L39.7381 17.25H24C22.7574 17.25 21.75 16.2426 21.75 15V0.0795461ZM16.7834 19.57L16.2217 19.9692C14.66 21.08 12.8267 21.6667 10.9184 21.6667C9.00338 21.6667 7.16422 21.0759 5.59672 19.9575L5.05005 19.5667L5.31672 18.9492C5.55922 18.3875 5.95755 17.9434 6.46838 17.665L8.30505 16.7592C7.49838 16.2409 6.91672 15.4609 6.56922 14.4317C5.99922 14.0842 5.64005 13.4667 5.64005 12.7784V12.2225C5.64005 11.6667 5.88088 11.1459 6.28838 10.7809C6.36838 10.2692 6.50005 9.78919 6.68088 9.34836C6.76505 9.14252 6.83672 8.98836 6.89505 8.86336L6.90615 8.83925C6.94215 8.76114 6.98235 8.67393 6.98838 8.64752C6.99088 8.62086 6.98672 8.52002 6.91672 8.17002C6.86255 7.89752 6.82671 7.64752 6.80171 7.43336C6.75338 7.00836 6.98505 6.61336 7.38005 6.45086C7.77588 6.28919 8.21921 6.40669 8.48338 6.74252C8.54671 6.82336 8.67588 6.95502 8.92838 7.12502C9.47171 7.49002 10.1067 7.52586 10.5425 7.49002C10.6659 7.48002 10.7909 7.47502 10.9184 7.47502C14.165 7.47502 15.2375 9.18586 15.535 10.7675C15.9517 11.1317 16.1967 11.6575 16.1967 12.2217V12.7775C16.1967 13.4659 15.8375 14.0834 15.2675 14.4309C14.9184 15.4642 14.3342 16.2459 13.5217 16.765L15.2884 17.6667C15.8192 17.9334 16.2367 18.375 16.4967 18.9434L16.7834 19.57ZM9.38422 18.0859L7.34672 19.0892C9.52338 20.2784 12.2692 20.2859 14.4534 19.1117L12.4409 18.0842C12.0159 17.8667 11.7534 17.4367 11.7534 16.9617V15.7717L12.2567 15.5542C13.0159 15.2284 13.5117 14.595 13.7725 13.62L13.8917 13.1759L14.3309 13.0392C14.4267 13.0092 14.5309 12.915 14.5309 12.7784V12.2225C14.5309 12.1034 14.4509 12.02 14.3767 11.9809L13.9884 11.7767L13.9375 11.3409C13.81 10.2542 13.3517 9.14252 10.9192 9.14252C10.8367 9.14252 10.7559 9.14586 10.6767 9.15252C9.94255 9.20836 9.25172 9.10836 8.64338 8.85419C8.61505 9.08502 8.53672 9.29002 8.40755 9.56669L8.39716 9.58902C8.34909 9.69224 8.29099 9.81701 8.22422 9.98086C8.05922 10.3825 7.95005 10.8367 7.89838 11.3325L7.85255 11.7734L7.46171 11.9817C7.38755 12.0209 7.30838 12.1042 7.30838 12.2225V12.7784C7.30838 12.915 7.41171 13.0092 7.50838 13.0392L7.94755 13.1759L8.06672 13.62C8.32755 14.595 8.82255 15.2275 9.58255 15.5542L10.0859 15.7717V16.9567C10.0859 17.4392 9.81672 17.8717 9.38422 18.0859ZM25.4166 28.3333H31.2499C31.7099 28.3333 32.0833 28.7058 32.0833 29.1666C32.0833 29.6275 31.7099 30 31.2499 30H25.4166C24.9566 30 24.5833 29.6275 24.5833 29.1666C24.5833 28.7058 24.9566 28.3333 25.4166 28.3333ZM23.7501 33.3333C23.7501 33.7942 23.3767 34.1667 22.9167 34.1667H8.75008C8.29008 34.1667 7.91675 33.7942 7.91675 33.3333C7.91675 32.8725 8.29008 32.5 8.75008 32.5H22.9167C23.3767 32.5 23.7501 32.8725 23.7501 33.3333ZM12.0833 29.1666C12.0833 29.6275 12.4566 30 12.9166 30H21.2499C21.7099 30 22.0833 29.6275 22.0833 29.1666C22.0833 28.7058 21.7099 28.3333 21.2499 28.3333H12.9166C12.4566 28.3333 12.0833 28.7058 12.0833 29.1666ZM7.91675 29.1667C7.91675 28.9492 8.00842 28.7325 8.15842 28.575C8.45842 28.275 9.03341 28.2667 9.34175 28.575C9.49175 28.7325 9.58341 28.9492 9.58341 29.1667C9.58341 29.3833 9.49175 29.6 9.34175 29.7583C9.18341 29.9083 8.97508 30 8.75008 30C8.52508 30 8.30842 29.9075 8.15842 29.75C8.00842 29.6 7.91675 29.3833 7.91675 29.1667ZM31.2499 37.5H25.4166C24.9566 37.5 24.5833 37.8725 24.5833 38.3333C24.5833 38.7942 24.9566 39.1667 25.4166 39.1667H31.2499C31.7099 39.1667 32.0833 38.7942 32.0833 38.3333C32.0833 37.8725 31.7099 37.5 31.2499 37.5ZM12.9166 39.1667C12.4566 39.1667 12.0833 38.7942 12.0833 38.3333C12.0833 37.8725 12.4566 37.5 12.9166 37.5H21.2499C21.7099 37.5 22.0833 37.8725 22.0833 38.3333C22.0833 38.7942 21.7099 39.1667 21.2499 39.1667H12.9166ZM8.15842 37.7417C8.00842 37.8992 7.91675 38.1159 7.91675 38.3334C7.91675 38.55 8.00842 38.7667 8.15842 38.9167C8.30842 39.0742 8.52508 39.1667 8.75008 39.1667C8.97508 39.1667 9.18341 39.075 9.34175 38.925C9.49175 38.7667 9.58341 38.55 9.58341 38.3334C9.58341 38.1159 9.49175 37.8992 9.34175 37.7417C9.03341 37.4334 8.45842 37.4417 8.15842 37.7417ZM26.25 33.3334C26.25 33.1075 26.3417 32.8992 26.4917 32.7417C26.8083 32.4334 27.3583 32.4334 27.675 32.7417C27.825 32.8992 27.9167 33.1159 27.9167 33.3334C27.9167 33.5584 27.8333 33.7667 27.675 33.925C27.5167 34.075 27.3 34.1667 27.0833 34.1667C26.8667 34.1667 26.65 34.075 26.4917 33.925C26.3333 33.7667 26.25 33.5584 26.25 33.3334ZM30.6584 32.7417C30.5084 32.8992 30.4167 33.1075 30.4167 33.3334C30.4167 33.5584 30.5001 33.7667 30.6584 33.925C30.8167 34.075 31.0334 34.1667 31.2501 34.1667C31.4667 34.1667 31.6834 34.075 31.8417 33.9167C32.0001 33.7584 32.0834 33.55 32.0834 33.3334C32.0834 33.1159 31.9917 32.8992 31.8417 32.7417C31.5251 32.4334 30.9751 32.4334 30.6584 32.7417Z" fill="#F2F2F2"/>
</svg>
