<svg width="464" height="424" viewBox="0 0 464 424" fill="none" xmlns="http://www.w3.org/2000/svg">
<path d="M164.3 420.3H367.9C423.6 399.4 448.7 358.4 448.7 305.3C448.7 302 448.5 298.6 448.3 295.3C420.4 299.8 391.1 302.4 360.8 302.9C352.6 330.5 327 350.5 296.7 350.5H225.7C207.9 350.5 193.5 336.2 193.5 318.5V313.3H191.6C173.8 313.3 159.4 298.8 159.4 281.1V265.5C133 261.7 108.9 255.6 87.4 247.6C84.4 258.8 82.7 270.5 82.7 282.5C82.6 348.4 108.5 397 164.3 420.3Z" fill="#83321C"/>
<path d="M159.3 281V265.4C132.9 261.6 108.8 255.5 87.3001 247.5C84.3001 258.7 82.6001 270.4 82.6001 282.4C82.6001 286.8 82.7001 291 82.9001 295.3L177.4 310.1C166.7 304.8 159.3 293.7 159.3 281Z" fill="#A54125"/>
<path d="M324.1 344.6C315.7 348.4 306.5 350.4 296.7 350.4H225.7C218.8 350.4 212.4 348.2 207.1 344.6H92.2C104.2 379.1 127.9 405.1 164.3 420.3H367.9C408.9 404.9 433.3 378.6 443.3 344.6H324.1Z" fill="#76220A"/>
<path opacity="0.38" d="M148.9 265.4V282.5C148.9 302 164.7 318.9 184.2 318.9H186.3V323.6C186.3 343.1 202.1 358.8 221.6 358.8H299.6C332.8 358.8 361 336.8 369.9 306.6C396.8 306.1 423.1 304.1 448.4 300.8C448.3 299 448.2 297.1 448.1 295.3C420.2 299.8 390.9 302.4 360.6 302.9C352.4 330.5 326.8 350.5 296.5 350.5H225.5C207.7 350.5 193.3 336.2 193.3 318.5V313.3H191.4C173.6 313.3 159.2 298.8 159.2 281.1V265.5C132.8 261.7 108.7 255.6 87.2 247.6C86.8 248.9 86.5 250.2 86.2 251.5C105.6 257.4 126.5 262.2 148.9 265.4Z" fill="#EA8B98"/>
<path d="M159.3 281V265.4C132.9 261.6 108.8 255.5 87.3001 247.5C84.3001 258.7 82.6001 270.4 82.6001 282.4C82.6001 286.8 82.7001 291 82.9001 295.3L177.4 310.1C166.7 304.8 159.3 293.7 159.3 281Z" stroke="#282828" stroke-width="4" stroke-miterlimit="10" stroke-linecap="round" stroke-linejoin="round"/>
<path opacity="0.22" d="M142.9 288H115.1V315.8H142.9V288Z" stroke="#282828" stroke-width="6" stroke-miterlimit="10" stroke-linecap="round" stroke-linejoin="round"/>
<path d="M397.6 344.6H324C315.6 348.4 306.4 350.4 296.6 350.4H225.6C218.7 350.4 212.3 348.2 207 344.6H163.8" stroke="#282828" stroke-width="4" stroke-miterlimit="10" stroke-linecap="round" stroke-linejoin="round"/>
<path d="M154.4 344.6H92.2C104.2 379.1 127.9 405.1 164.3 420.3H367.9C408.9 404.9 433.3 378.6 443.3 344.6H406.8" stroke="#282828" stroke-width="4" stroke-miterlimit="10" stroke-linecap="round" stroke-linejoin="round"/>
<path d="M112.3 381.7C125.2 398.1 142.5 411.1 164.3 420.3H367.9C392.4 411.1 410.9 398 424.1 381.7H112.3Z" fill="#641701"/>
<g opacity="0.25">
<path d="M448.2 295.3C442.9 296.2 437.4 296.9 432 297.6C432.1 299.8 432.2 302.1 432.2 304.3H369.6C369.6 310.8 374.9 316 381.3 316H431.9C429.7 347.7 417.9 374.6 395 394.9C382 406.3 365.2 410.5 347.9 410.5H188.7C175.3 410.5 162.1 408.8 150.7 401.6C109.5 375.7 90.2 331.6 90.2 274.5C90.2 273.2 91.2 266.6 91.8 262.9C92 261.5 93.4 260.6 94.7 261L140.7 272.2C144.6 273.1 148.6 271.5 150.7 268.1C150.9 267.7 151.1 267.5 151.1 267.3C151.5 264.2 92.1 252.3 92.7 249.3C90.9 248.7 89.0999 248 87.3999 247.4C84.3999 258.6 82.7 270.3 82.7 282.3C82.7 348.4 108.5 397 164.3 420.3H351.5H367.9C369.5 419.7 371.1 419.1 372.6 418.4C373.1 418.2 373.6 418 374.1 417.8C375.2 417.4 376.2 416.9 377.2 416.4C377.7 416.2 378.3 415.9 378.8 415.7C379.8 415.2 380.8 414.8 381.7 414.3C382.2 414.1 382.7 413.8 383.2 413.6C384.3 413 385.4 412.5 386.5 411.9C386.8 411.7 387.1 411.6 387.4 411.4C388.8 410.7 390.1 409.9 391.4 409.1C391.8 408.9 392.2 408.6 392.6 408.4C393.5 407.8 394.5 407.3 395.4 406.7C395.9 406.4 396.4 406.1 396.8 405.8C397.6 405.3 398.4 404.8 399.2 404.2C399.7 403.9 400.1 403.6 400.6 403.2C401.4 402.6 402.2 402.1 403 401.5C403.4 401.2 403.8 400.9 404.2 400.6C405.3 399.7 406.5 398.9 407.5 398C407.8 397.8 408 397.5 408.3 397.3C409.1 396.6 410 395.9 410.8 395.2C411.2 394.8 411.6 394.5 412 394.1C412.7 393.5 413.3 392.9 413.9 392.3C414.3 391.9 414.7 391.5 415.1 391.1C415.7 390.5 416.3 389.9 416.9 389.3C417.3 388.9 417.7 388.5 418 388.1C418.7 387.3 419.5 386.5 420.2 385.8C439.4 364.4 448.4 336.9 448.4 305.1C448.6 302 448.5 298.6 448.2 295.3Z" fill="#3A121A"/>
</g>
<path d="M395.6 381.7H383.4" stroke="#282828" stroke-width="4" stroke-miterlimit="10" stroke-linecap="round" stroke-linejoin="round"/>
<path d="M373.7 381.7H112.3C125.2 398.1 142.5 411.1 164.3 420.3H367.9C392.4 411.1 410.9 398 424.1 381.7H401.9" stroke="#282828" stroke-width="4" stroke-miterlimit="10" stroke-linecap="round" stroke-linejoin="round"/>
<path d="M347.2 13.6C321 -1.80001 294.9 24.9 268.7 9.39998C268.7 20.5 268.7 31.7 268.7 42.8C294.9 55.5 321 26 347.2 38.6C341.5 31.4 335.8 26.1 330.1 22C335.8 17.9 341.5 14.8 347.2 13.6Z" fill="#282828"/>
<path opacity="0.38" d="M283.4 14.2C278.5 13.7 273.6 12.3 268.8 9.39999C268.8 20.5 268.8 31.7 268.8 42.8C273.7 45.2 278.6 46.1 283.4 46V14.2Z" fill="#3D3D3D"/>
<path d="M268.7 3V350.4" stroke="#282828" stroke-width="6" stroke-miterlimit="10" stroke-linecap="round" stroke-linejoin="round"/>
<path d="M324.2 329.3C287.2 329.3 250.3 329.3 213.3 329.3C199.3 294 199.3 254.7 213.3 219.5C250.3 219.5 287.2 219.5 324.2 219.5C310.2 254.8 310.2 294 324.2 329.3Z" fill="#D8D8D9"/>
<path d="M282.1 251.1C282.1 239.9 280.4 229.3 277.4 219.5C256 219.5 234.6 219.5 213.3 219.5C199.3 254.8 199.3 294.1 213.3 329.3C223.1 329.3 233 329.3 242.8 329.3C265.9 316 282.1 286 282.1 251.1Z" fill="white"/>
<path d="M324.2 329.3C287.2 329.3 250.3 329.3 213.3 329.3C199.3 294 199.3 254.7 213.3 219.5C250.3 219.5 287.2 219.5 324.2 219.5C310.2 254.8 310.2 294 324.2 329.3Z" stroke="#282828" stroke-width="6" stroke-miterlimit="10" stroke-linecap="round" stroke-linejoin="round"/>
<path d="M312.1 204.2C283.2 204.2 254.3 204.2 225.4 204.2C217.9 185.4 217.9 164.4 225.4 145.6C254.3 145.6 283.2 145.6 312.1 145.6C304.6 164.4 304.6 185.4 312.1 204.2Z" fill="#D8D8D9"/>
<path d="M282.1 157.9C282.1 153.7 281.6 149.5 280.6 145.6C262.2 145.6 243.8 145.6 225.5 145.6C218 164.4 218 185.4 225.5 204.2C233.9 204.2 242.2 204.2 250.6 204.2C269 196.8 282.1 178.9 282.1 157.9Z" fill="white"/>
<path d="M312.1 204.2C283.2 204.2 254.3 204.2 225.4 204.2C217.9 185.4 217.9 164.4 225.4 145.6C254.3 145.6 283.2 145.6 312.1 145.6C304.6 164.4 304.6 185.4 312.1 204.2Z" stroke="#282828" stroke-width="6" stroke-miterlimit="10" stroke-linecap="round" stroke-linejoin="round"/>
<path d="M299.3 130.3C279.8 130.3 260.4 130.3 240.9 130.3C236.2 118.4 236.2 105.2 240.9 93.3C260.4 93.3 279.8 93.3 299.3 93.3C294.6 105.2 294.6 118.4 299.3 130.3Z" fill="#D8D8D9"/>
<path d="M282.1 93.3C268.4 93.3 254.6 93.3 240.9 93.3C236.2 105.2 236.2 118.4 240.9 130.3C246.5 130.3 252.1 130.3 257.6 130.3C277.6 127.8 287 108 282.1 93.3Z" fill="white"/>
<path d="M299.3 130.3C279.8 130.3 260.4 130.3 240.9 130.3C236.2 118.4 236.2 105.2 240.9 93.3C260.4 93.3 279.8 93.3 299.3 93.3C294.6 105.2 294.6 118.4 299.3 130.3Z" stroke="#282828" stroke-width="6" stroke-miterlimit="10" stroke-linecap="round" stroke-linejoin="round"/>
<g opacity="0.28">
<path d="M215.1 396.5C220.512 396.5 224.9 392.112 224.9 386.7C224.9 381.288 220.512 376.9 215.1 376.9C209.688 376.9 205.3 381.288 205.3 386.7C205.3 392.112 209.688 396.5 215.1 396.5Z" fill="#FFFFF3"/>
<path d="M215.1 396.5C220.512 396.5 224.9 392.112 224.9 386.7C224.9 381.288 220.512 376.9 215.1 376.9C209.688 376.9 205.3 381.288 205.3 386.7C205.3 392.112 209.688 396.5 215.1 396.5Z" stroke="#282828" stroke-width="6" stroke-miterlimit="10" stroke-linecap="round" stroke-linejoin="round"/>
<path d="M261 396.5C266.412 396.5 270.8 392.112 270.8 386.7C270.8 381.288 266.412 376.9 261 376.9C255.588 376.9 251.2 381.288 251.2 386.7C251.2 392.112 255.588 396.5 261 396.5Z" fill="#FFFFF3"/>
<path d="M261 396.5C266.412 396.5 270.8 392.112 270.8 386.7C270.8 381.288 266.412 376.9 261 376.9C255.588 376.9 251.2 381.288 251.2 386.7C251.2 392.112 255.588 396.5 261 396.5Z" stroke="#282828" stroke-width="6" stroke-miterlimit="10" stroke-linecap="round" stroke-linejoin="round"/>
<path d="M307 396.5C312.412 396.5 316.8 392.112 316.8 386.7C316.8 381.288 312.412 376.9 307 376.9C301.588 376.9 297.2 381.288 297.2 386.7C297.2 392.112 301.588 396.5 307 396.5Z" fill="#FFFFF3"/>
<path d="M307 396.5C312.412 396.5 316.8 392.112 316.8 386.7C316.8 381.288 312.412 376.9 307 376.9C301.588 376.9 297.2 381.288 297.2 386.7C297.2 392.112 301.588 396.5 307 396.5Z" stroke="#282828" stroke-width="6" stroke-miterlimit="10" stroke-linecap="round" stroke-linejoin="round"/>
<path d="M353 396.5C358.412 396.5 362.8 392.112 362.8 386.7C362.8 381.288 358.412 376.9 353 376.9C347.588 376.9 343.2 381.288 343.2 386.7C343.2 392.112 347.588 396.5 353 396.5Z" fill="#FFFFF3"/>
<path d="M353 396.5C358.412 396.5 362.8 392.112 362.8 386.7C362.8 381.288 358.412 376.9 353 376.9C347.588 376.9 343.2 381.288 343.2 386.7C343.2 392.112 347.588 396.5 353 396.5Z" stroke="#282828" stroke-width="6" stroke-miterlimit="10" stroke-linecap="round" stroke-linejoin="round"/>
<path d="M169.1 396.5C174.512 396.5 178.9 392.112 178.9 386.7C178.9 381.288 174.512 376.9 169.1 376.9C163.688 376.9 159.3 381.288 159.3 386.7C159.3 392.112 163.688 396.5 169.1 396.5Z" fill="#FFFFF3"/>
<path d="M169.1 396.5C174.512 396.5 178.9 392.112 178.9 386.7C178.9 381.288 174.512 376.9 169.1 376.9C163.688 376.9 159.3 381.288 159.3 386.7C159.3 392.112 163.688 396.5 169.1 396.5Z" stroke="#282828" stroke-width="6" stroke-miterlimit="10" stroke-linecap="round" stroke-linejoin="round"/>
</g>
<path d="M213.1 391.5C218.512 391.5 222.9 387.112 222.9 381.7C222.9 376.288 218.512 371.9 213.1 371.9C207.688 371.9 203.3 376.288 203.3 381.7C203.3 387.112 207.688 391.5 213.1 391.5Z" fill="#FFFFF3"/>
<path d="M213.1 391.5C218.512 391.5 222.9 387.112 222.9 381.7C222.9 376.288 218.512 371.9 213.1 371.9C207.688 371.9 203.3 376.288 203.3 381.7C203.3 387.112 207.688 391.5 213.1 391.5Z" stroke="#282828" stroke-width="6" stroke-miterlimit="10" stroke-linecap="round" stroke-linejoin="round"/>
<path d="M259 391.5C264.412 391.5 268.8 387.112 268.8 381.7C268.8 376.288 264.412 371.9 259 371.9C253.588 371.9 249.2 376.288 249.2 381.7C249.2 387.112 253.588 391.5 259 391.5Z" fill="#FFFFF3"/>
<path d="M259 391.5C264.412 391.5 268.8 387.112 268.8 381.7C268.8 376.288 264.412 371.9 259 371.9C253.588 371.9 249.2 376.288 249.2 381.7C249.2 387.112 253.588 391.5 259 391.5Z" stroke="#282828" stroke-width="6" stroke-miterlimit="10" stroke-linecap="round" stroke-linejoin="round"/>
<path d="M305 391.5C310.412 391.5 314.8 387.112 314.8 381.7C314.8 376.288 310.412 371.9 305 371.9C299.588 371.9 295.2 376.288 295.2 381.7C295.2 387.112 299.588 391.5 305 391.5Z" fill="#FFFFF3"/>
<path d="M305 391.5C310.412 391.5 314.8 387.112 314.8 381.7C314.8 376.288 310.412 371.9 305 371.9C299.588 371.9 295.2 376.288 295.2 381.7C295.2 387.112 299.588 391.5 305 391.5Z" stroke="#282828" stroke-width="6" stroke-miterlimit="10" stroke-linecap="round" stroke-linejoin="round"/>
<path d="M351 391.5C356.412 391.5 360.8 387.112 360.8 381.7C360.8 376.288 356.412 371.9 351 371.9C345.588 371.9 341.2 376.288 341.2 381.7C341.2 387.112 345.588 391.5 351 391.5Z" fill="#FFFFF3"/>
<path d="M351 391.5C356.412 391.5 360.8 387.112 360.8 381.7C360.8 376.288 356.412 371.9 351 371.9C345.588 371.9 341.2 376.288 341.2 381.7C341.2 387.112 345.588 391.5 351 391.5Z" stroke="#282828" stroke-width="6" stroke-miterlimit="10" stroke-linecap="round" stroke-linejoin="round"/>
<path d="M167.1 391.5C172.512 391.5 176.9 387.112 176.9 381.7C176.9 376.288 172.512 371.9 167.1 371.9C161.688 371.9 157.3 376.288 157.3 381.7C157.3 387.112 161.688 391.5 167.1 391.5Z" fill="#FFFFF3"/>
<path d="M167.1 391.5C172.512 391.5 176.9 387.112 176.9 381.7C176.9 376.288 172.512 371.9 167.1 371.9C161.688 371.9 157.3 376.288 157.3 381.7C157.3 387.112 161.688 391.5 167.1 391.5Z" fill="#FFFFF3"/>
<path d="M167.1 391.5C172.512 391.5 176.9 387.112 176.9 381.7C176.9 376.288 172.512 371.9 167.1 371.9C161.688 371.9 157.3 376.288 157.3 381.7C157.3 387.112 161.688 391.5 167.1 391.5Z" stroke="#282828" stroke-width="6" stroke-miterlimit="10" stroke-linecap="round" stroke-linejoin="round"/>
<path d="M401.8 331.8C407.212 331.8 411.6 327.412 411.6 322C411.6 316.588 407.212 312.2 401.8 312.2C396.388 312.2 392 316.588 392 322C392 327.412 396.388 331.8 401.8 331.8Z" fill="#FFFFF3"/>
<path d="M401.8 331.8C407.212 331.8 411.6 327.412 411.6 322C411.6 316.588 407.212 312.2 401.8 312.2C396.388 312.2 392 316.588 392 322C392 327.412 396.388 331.8 401.8 331.8Z" stroke="#282828" stroke-width="6" stroke-miterlimit="10" stroke-linecap="round" stroke-linejoin="round"/>
<path d="M164.3 420.3H367.9C423.6 399.4 448.7 358.4 448.7 305.3C448.7 302 448.5 298.6 448.3 295.3C420.4 299.8 391.1 302.4 360.8 302.9C352.6 330.5 327 350.5 296.7 350.5H225.7C207.9 350.5 193.5 336.2 193.5 318.5V313.3H191.6C173.8 313.3 159.4 298.8 159.4 281.1V265.5C133 261.7 108.9 255.6 87.4 247.6C84.4 258.8 82.7 270.5 82.7 282.5C82.6 348.4 108.5 397 164.3 420.3Z" stroke="#282828" stroke-width="6" stroke-miterlimit="10" stroke-linecap="round" stroke-linejoin="round"/>
<path d="M460.8 255.6H360.7V302.9H460.8V255.6Z" fill="#F9AA68"/>
<path d="M360.7 255.6C360.7 260.8 364.9 265 370.1 265H448.6V290.7C448.6 297.4 454.1 302.9 460.8 302.9V255.6H360.7Z" fill="#F28D41"/>
<path d="M460.8 255.6H360.7V302.9H460.8V255.6Z" stroke="#282828" stroke-width="6" stroke-miterlimit="10" stroke-linecap="round" stroke-linejoin="round"/>
<path d="M401.8 302.9H384.6V283C384.6 278.3 388.4 274.4 393.2 274.4C397.9 274.4 401.8 278.2 401.8 283V302.9Z" fill="#894532"/>
<path d="M436.9 302.9H419.7V283C419.7 278.3 423.5 274.4 428.3 274.4C433 274.4 436.9 278.2 436.9 283V302.9Z" fill="#894532"/>
<path d="M401.8 302.9H384.6V283C384.6 278.3 388.4 274.4 393.2 274.4C397.9 274.4 401.8 278.2 401.8 283V302.9Z" stroke="#282828" stroke-width="6" stroke-miterlimit="10" stroke-linecap="round" stroke-linejoin="round"/>
<path d="M436.9 302.9H419.7V283C419.7 278.3 423.5 274.4 428.3 274.4C433 274.4 436.9 278.2 436.9 283V302.9Z" stroke="#282828" stroke-width="6" stroke-miterlimit="10" stroke-linecap="round" stroke-linejoin="round"/>
<path d="M159.3 254.7L56.8001 229.9L53.6001 243.5L159.3 269V254.7Z" fill="#F9AA68"/>
<path d="M159.3 254.7L56.8001 229.9L53.6001 243.5L159.3 269V254.7Z" stroke="#282828" stroke-width="6" stroke-miterlimit="10" stroke-linecap="round" stroke-linejoin="round"/>
<path d="M408 108V255.6" stroke="#383838" stroke-width="6" stroke-miterlimit="10" stroke-linecap="round" stroke-linejoin="round"/>
<path d="M443.3 237.3C419.8 237.3 396.3 237.3 372.7 237.3C363.7 214.6 363.7 189.4 372.7 166.7C396.2 166.7 419.7 166.7 443.3 166.7C434.3 189.4 434.3 214.6 443.3 237.3Z" fill="#D8D8D9"/>
<path d="M418.7 176.7C418.7 173.3 418.5 169.9 418.1 166.7C403 166.7 387.9 166.7 372.7 166.7C363.7 189.4 363.7 214.6 372.7 237.3C377.7 237.3 382.7 237.3 387.7 237.3C406.1 225.6 418.7 202.9 418.7 176.7Z" fill="white"/>
<path d="M435.8 154.3C417.3 154.3 398.8 154.3 380.2 154.3C375.6 142.7 375.6 129.8 380.2 118.3C398.7 118.3 417.2 118.3 435.8 118.3C431.2 129.9 431.2 142.7 435.8 154.3Z" fill="#D8D8D9"/>
<path d="M418 118.3C405.4 118.3 392.8 118.3 380.2 118.3C375.6 129.9 375.6 142.8 380.2 154.3C386.6 154.3 392.9 154.3 399.3 154.3C410 145.5 417.1 132.7 418 118.3Z" fill="white"/>
<path d="M443.3 237.3C419.8 237.3 396.3 237.3 372.7 237.3C363.7 214.6 363.7 189.4 372.7 166.7C396.2 166.7 419.7 166.7 443.3 166.7C434.3 189.4 434.3 214.6 443.3 237.3Z" stroke="#282828" stroke-width="6" stroke-miterlimit="10" stroke-linecap="round" stroke-linejoin="round"/>
<path d="M435.8 154.3C417.3 154.3 398.8 154.3 380.2 154.3C375.6 142.7 375.6 129.8 380.2 118.3C398.7 118.3 417.2 118.3 435.8 118.3C431.2 129.9 431.2 142.7 435.8 154.3Z" stroke="#282828" stroke-width="6" stroke-miterlimit="10" stroke-linecap="round" stroke-linejoin="round"/>
<path d="M122.5 114.6V245.8" stroke="#383838" stroke-width="6" stroke-miterlimit="10" stroke-linecap="round" stroke-linejoin="round"/>
<path d="M167.1 219.5C137.4 219.5 107.6 219.5 77.9 219.5C66.6 190.8 66.6 158.9 77.9 130.3C107.6 130.3 137.4 130.3 167.1 130.3C155.7 158.9 155.7 190.8 167.1 219.5Z" fill="#D8D8D9"/>
<path d="M136.4 154.5C136.4 146 134.6 137.8 131.5 130.3C113.6 130.3 95.8 130.3 77.9 130.3C66.6 159 66.6 190.9 77.9 219.5C80.1 219.5 82.3001 219.5 84.5001 219.5C114.7 210.2 136.4 184.6 136.4 154.5Z" fill="white"/>
<path d="M167.1 219.5C137.4 219.5 107.6 219.5 77.9 219.5C66.6 190.8 66.6 158.9 77.9 130.3C107.6 130.3 137.4 130.3 167.1 130.3C155.7 158.9 155.7 190.8 167.1 219.5Z" stroke="#282828" stroke-width="6" stroke-miterlimit="10" stroke-linecap="round" stroke-linejoin="round"/>
<path d="M53.6 235.7L3 220.3" stroke="#282828" stroke-width="6" stroke-miterlimit="10" stroke-linecap="round" stroke-linejoin="round"/>
<path d="M139.2 283H111.4V310.8H139.2V283Z" fill="#894532"/>
<path d="M139.2 283H111.4V310.8H139.2V283Z" stroke="#282828" stroke-width="6" stroke-miterlimit="10" stroke-linecap="round" stroke-linejoin="round"/>
<path d="M20.8 225.7C20.8 225.7 112.2 162 122.5 118.3C163.7 118.3 265.9 85.1 267.3 64C276 85.9 318.9 124.6 408 107.9" stroke="#383838" stroke-miterlimit="10"/>
<path d="M277.7 55.1H257V72.9H277.7V55.1Z" fill="#F9AA68"/>
<path d="M277.7 55.1H257V72.9H277.7V55.1Z" stroke="#282828" stroke-width="6" stroke-miterlimit="10" stroke-linecap="round" stroke-linejoin="round"/>
</svg>
