<svg width="57" height="46" viewBox="0 0 57 46" fill="none" xmlns="http://www.w3.org/2000/svg">
<path d="M20.3265 44.7575H44.7214C51.3953 42.2533 54.4027 37.3408 54.4027 30.9784C54.4027 30.583 54.3787 30.1757 54.3548 29.7803C51.0118 30.3194 47.5012 30.631 43.8707 30.6909C42.8882 33.9978 39.8209 36.3942 36.1904 36.3942H27.6833C25.5505 36.3942 23.8252 34.6808 23.8252 32.56V31.937H23.5975C21.4648 31.937 19.7394 30.1996 19.7394 28.0788V26.2097C16.5762 25.7544 13.6886 25.0235 11.1125 24.0649C10.753 25.4069 10.5494 26.8088 10.5494 28.2466C10.5374 36.1426 13.6407 41.9657 20.3265 44.7575Z" fill="#A54125"/>
<path d="M19.7274 28.0668V26.1977C16.5642 25.7424 13.6766 25.0115 11.1005 24.0529C10.741 25.3949 10.5374 26.7968 10.5374 28.2346C10.5374 28.7618 10.5493 29.265 10.5733 29.7802L21.8961 31.5536C20.614 30.9185 19.7274 29.5885 19.7274 28.0668Z" fill="#A54125"/>
<path d="M39.4735 35.6873C38.467 36.1426 37.3647 36.3822 36.1905 36.3822H27.6834C26.8567 36.3822 26.0899 36.1186 25.4548 35.6873H11.6877C13.1256 39.821 15.9652 42.9362 20.3266 44.7575H44.7215C49.6341 42.9123 52.5576 39.7611 53.7558 35.6873H39.4735Z" fill="#A54125"/>
<path d="M19.7274 28.0668V26.1977C16.5642 25.7424 13.6766 25.0115 11.1005 24.0529C10.741 25.3949 10.5374 26.7968 10.5374 28.2346C10.5374 28.7618 10.5493 29.265 10.5733 29.7802L21.8961 31.5536C20.614 30.9185 19.7274 29.5885 19.7274 28.0668Z" stroke="#282828" stroke-miterlimit="10" stroke-linecap="round" stroke-linejoin="round"/>
<path d="M48.28 35.6873H39.4614C38.455 36.1426 37.3526 36.3822 36.1784 36.3822H27.6713C26.8446 36.3822 26.0778 36.1186 25.4427 35.6873H20.2666" stroke="#282828" stroke-miterlimit="10" stroke-linecap="round" stroke-linejoin="round"/>
<path d="M19.1404 35.6873H11.6877C13.1256 39.821 15.9652 42.9362 20.3266 44.7575H44.7215C49.6341 42.9123 52.5576 39.7611 53.7558 35.6873H49.3824" stroke="#282828" stroke-miterlimit="10" stroke-linecap="round" stroke-linejoin="round"/>
<path d="M14.0962 40.1325C15.6418 42.0975 17.7147 43.6552 20.3267 44.7575H44.7216C47.6572 43.6552 49.8738 42.0855 51.4554 40.1325H14.0962Z" fill="#A54125"/>
<path d="M48.0404 40.1325H46.5786" stroke="#282828" stroke-miterlimit="10" stroke-linecap="round" stroke-linejoin="round"/>
<path d="M45.4166 40.1325H14.0962C15.6418 42.0975 17.7147 43.6552 20.3267 44.7575H44.7216C47.6572 43.6552 49.8738 42.0855 51.4554 40.1325H48.7954" stroke="#282828" stroke-miterlimit="10" stroke-linecap="round" stroke-linejoin="round"/>
<path d="M32.8357 1.75748V37.3775" stroke="#282828" stroke-miterlimit="10" stroke-linecap="round" stroke-linejoin="round"/>
<path d="M39.4856 33.8541C35.0523 33.8541 30.631 33.8541 26.1978 33.8541C24.5203 29.6245 24.5203 24.9156 26.1978 20.6981C30.631 20.6981 35.0523 20.6981 39.4856 20.6981C37.8081 24.9276 37.8081 29.6245 39.4856 33.8541Z" fill="white"/>
<path d="M38.0358 18.8648C34.5731 18.8648 31.1103 18.8648 27.6476 18.8648C26.749 16.6123 26.749 14.0961 27.6476 11.8435C31.1103 11.8435 34.5731 11.8435 38.0358 11.8435C37.1372 14.0961 37.1372 16.6123 38.0358 18.8648Z" fill="white"/>
<path d="M36.502 10.0103C34.1656 10.0103 31.8411 10.0103 29.5046 10.0103C28.9415 8.58446 28.9415 7.00286 29.5046 5.57703C31.8411 5.57703 34.1656 5.57703 36.502 5.57703C35.9389 7.00286 35.9389 8.58446 36.502 10.0103Z" fill="white"/>
<path d="M26.1737 41.3067C26.8222 41.3067 27.3479 40.781 27.3479 40.1325C27.3479 39.484 26.8222 38.9583 26.1737 38.9583C25.5252 38.9583 24.9995 39.484 24.9995 40.1325C24.9995 40.781 25.5252 41.3067 26.1737 41.3067Z" fill="white"/>
<path d="M26.1737 41.3067C26.8222 41.3067 27.3479 40.781 27.3479 40.1325C27.3479 39.484 26.8222 38.9583 26.1737 38.9583C25.5252 38.9583 24.9995 39.484 24.9995 40.1325C24.9995 40.781 25.5252 41.3067 26.1737 41.3067Z" stroke="#282828" stroke-miterlimit="10" stroke-linecap="round" stroke-linejoin="round"/>
<path d="M31.6735 41.3067C32.322 41.3067 32.8477 40.781 32.8477 40.1325C32.8477 39.484 32.322 38.9583 31.6735 38.9583C31.025 38.9583 30.4993 39.484 30.4993 40.1325C30.4993 40.781 31.025 41.3067 31.6735 41.3067Z" fill="white"/>
<path d="M31.6735 41.3067C32.322 41.3067 32.8477 40.781 32.8477 40.1325C32.8477 39.484 32.322 38.9583 31.6735 38.9583C31.025 38.9583 30.4993 39.484 30.4993 40.1325C30.4993 40.781 31.025 41.3067 31.6735 41.3067Z" stroke="#282828" stroke-miterlimit="10" stroke-linecap="round" stroke-linejoin="round"/>
<path d="M37.1852 41.3067C37.8337 41.3067 38.3594 40.781 38.3594 40.1325C38.3594 39.484 37.8337 38.9583 37.1852 38.9583C36.5367 38.9583 36.011 39.484 36.011 40.1325C36.011 40.781 36.5367 41.3067 37.1852 41.3067Z" fill="white"/>
<path d="M37.1852 41.3067C37.8337 41.3067 38.3594 40.781 38.3594 40.1325C38.3594 39.484 37.8337 38.9583 37.1852 38.9583C36.5367 38.9583 36.011 39.484 36.011 40.1325C36.011 40.781 36.5367 41.3067 37.1852 41.3067Z" stroke="#282828" stroke-miterlimit="10" stroke-linecap="round" stroke-linejoin="round"/>
<path d="M42.6967 41.3067C43.3452 41.3067 43.8709 40.781 43.8709 40.1325C43.8709 39.484 43.3452 38.9583 42.6967 38.9583C42.0482 38.9583 41.5225 39.484 41.5225 40.1325C41.5225 40.781 42.0482 41.3067 42.6967 41.3067Z" fill="white"/>
<path d="M42.6967 41.3067C43.3452 41.3067 43.8709 40.781 43.8709 40.1325C43.8709 39.484 43.3452 38.9583 42.6967 38.9583C42.0482 38.9583 41.5225 39.484 41.5225 40.1325C41.5225 40.781 42.0482 41.3067 42.6967 41.3067Z" stroke="#282828" stroke-miterlimit="10" stroke-linecap="round" stroke-linejoin="round"/>
<path d="M20.6623 41.3067C21.3108 41.3067 21.8365 40.781 21.8365 40.1325C21.8365 39.484 21.3108 38.9583 20.6623 38.9583C20.0137 38.9583 19.488 39.484 19.488 40.1325C19.488 40.781 20.0137 41.3067 20.6623 41.3067Z" fill="white"/>
<path d="M20.6623 41.3067C21.3108 41.3067 21.8365 40.781 21.8365 40.1325C21.8365 39.484 21.3108 38.9583 20.6623 38.9583C20.0137 38.9583 19.488 39.484 19.488 40.1325C19.488 40.781 20.0137 41.3067 20.6623 41.3067Z" fill="white"/>
<path d="M20.6623 41.3067C21.3108 41.3067 21.8365 40.781 21.8365 40.1325C21.8365 39.484 21.3108 38.9583 20.6623 38.9583C20.0137 38.9583 19.488 39.484 19.488 40.1325C19.488 40.781 20.0137 41.3067 20.6623 41.3067Z" stroke="#282828" stroke-miterlimit="10" stroke-linecap="round" stroke-linejoin="round"/>
<path d="M48.7833 34.1536C49.4318 34.1536 49.9576 33.6279 49.9576 32.9794C49.9576 32.3309 49.4318 31.8052 48.7833 31.8052C48.1348 31.8052 47.6091 32.3309 47.6091 32.9794C47.6091 33.6279 48.1348 34.1536 48.7833 34.1536Z" fill="white"/>
<path d="M48.7833 34.1536C49.4318 34.1536 49.9576 33.6279 49.9576 32.9794C49.9576 32.3309 49.4318 31.8052 48.7833 31.8052C48.1348 31.8052 47.6091 32.3309 47.6091 32.9794C47.6091 33.6279 48.1348 34.1536 48.7833 34.1536Z" stroke="#282828" stroke-miterlimit="10" stroke-linecap="round" stroke-linejoin="round"/>
<path d="M20.3265 44.7575H44.7214C51.3953 42.2533 54.4027 37.3408 54.4027 30.9784C54.4027 30.583 54.3787 30.1757 54.3548 29.7803C51.0118 30.3194 47.5012 30.631 43.8707 30.6909C42.8882 33.9978 39.8209 36.3942 36.1904 36.3942H27.6833C25.5505 36.3942 23.8252 34.6808 23.8252 32.56V31.937H23.5975C21.4648 31.937 19.7394 30.1996 19.7394 28.0788V26.2097C16.5762 25.7544 13.6886 25.0235 11.1125 24.0649C10.753 25.4069 10.5494 26.8088 10.5494 28.2466C10.5374 36.1426 13.6407 41.9657 20.3265 44.7575Z" stroke="#282828" stroke-miterlimit="10" stroke-linecap="round" stroke-linejoin="round"/>
<path d="M55.8527 25.0235H43.8589V30.6909H55.8527V25.0235Z" fill="#F9AA68"/>
<path d="M55.8527 25.0235H43.8589V30.6909H55.8527V25.0235Z" stroke="#282828" stroke-miterlimit="10" stroke-linecap="round" stroke-linejoin="round"/>
<path d="M48.7833 30.6909H46.7224V28.3065C46.7224 27.7433 47.1777 27.2761 47.7528 27.2761C48.316 27.2761 48.7833 27.7314 48.7833 28.3065V30.6909Z" fill="#894532"/>
<path d="M52.9888 30.6909H50.928V28.3065C50.928 27.7433 51.3833 27.2761 51.9584 27.2761C52.5216 27.2761 52.9888 27.7314 52.9888 28.3065V30.6909Z" fill="#894532"/>
<path d="M48.7833 30.6909H46.7224V28.3065C46.7224 27.7433 47.1777 27.2761 47.7528 27.2761C48.316 27.2761 48.7833 27.7314 48.7833 28.3065V30.6909Z" stroke="#282828" stroke-miterlimit="10" stroke-linecap="round" stroke-linejoin="round"/>
<path d="M52.9888 30.6909H50.928V28.3065C50.928 27.7433 51.3833 27.2761 51.9584 27.2761C52.5216 27.2761 52.9888 27.7314 52.9888 28.3065V30.6909Z" stroke="#282828" stroke-miterlimit="10" stroke-linecap="round" stroke-linejoin="round"/>
<path d="M19.7275 24.9156L7.44616 21.9442L7.06274 23.5737L19.7275 26.629V24.9156Z" fill="#F9AA68"/>
<path d="M19.7275 24.9156L7.44616 21.9442L7.06274 23.5737L19.7275 26.629V24.9156Z" stroke="#282828" stroke-miterlimit="10" stroke-linecap="round" stroke-linejoin="round"/>
<path d="M49.5261 7.33838V25.0235" stroke="#383838" stroke-miterlimit="10" stroke-linecap="round" stroke-linejoin="round"/>
<path d="M53.7557 22.8308C50.94 22.8308 48.1243 22.8308 45.2966 22.8308C44.2182 20.1109 44.2182 17.0915 45.2966 14.3717C48.1123 14.3717 50.928 14.3717 53.7557 14.3717C52.6773 17.0915 52.6773 20.1109 53.7557 22.8308Z" fill="white"/>
<path d="M52.8572 12.8859C50.6406 12.8859 48.424 12.8859 46.1954 12.8859C45.6442 11.496 45.6442 9.95038 46.1954 8.57248C48.412 8.57248 50.6286 8.57248 52.8572 8.57248C52.3061 9.96237 52.3061 11.496 52.8572 12.8859Z" fill="white"/>
<path d="M15.3181 8.12915V23.8493" stroke="#383838" stroke-miterlimit="10" stroke-linecap="round" stroke-linejoin="round"/>
<path d="M20.6622 20.698C17.1036 20.698 13.533 20.698 9.97444 20.698C8.6205 17.2593 8.6205 13.4371 9.97444 10.0103C13.533 10.0103 17.1036 10.0103 20.6622 10.0103C19.2963 13.4371 19.2963 17.2593 20.6622 20.698Z" fill="white"/>
<path d="M7.06279 22.6391L1 20.7939" stroke="#282828" stroke-miterlimit="10" stroke-linecap="round" stroke-linejoin="round"/>
<path d="M17.3192 28.3065H13.9883V31.6374H17.3192V28.3065Z" fill="#894532"/>
<path d="M17.3192 28.3065H13.9883V31.6374H17.3192V28.3065Z" stroke="#282828" stroke-miterlimit="10" stroke-linecap="round" stroke-linejoin="round"/>
<path d="M33.9141 0H31.4338V2.13276H33.9141V0Z" fill="#F9AA68"/>
</svg>
