<svg width="57" height="52" viewBox="0 0 57 52" fill="none" xmlns="http://www.w3.org/2000/svg">
<path d="M20.3265 51H44.7214C51.3953 48.4958 54.4027 43.5833 54.4027 37.2209C54.4027 36.8255 54.3787 36.4181 54.3548 36.0227C51.0118 36.5619 47.5012 36.8735 43.8707 36.9334C42.8882 40.2403 39.8209 42.6367 36.1904 42.6367H27.6833C25.5505 42.6367 23.8252 40.9233 23.8252 38.8025V38.1795H23.5975C21.4648 38.1795 19.7394 36.4421 19.7394 34.3213V32.4522C16.5762 31.9969 13.6886 31.266 11.1125 30.3074C10.753 31.6494 10.5494 33.0513 10.5494 34.4891C10.5374 42.3851 13.6407 48.2082 20.3265 51Z" fill="#83321C"/>
<path d="M19.7274 34.3094V32.4402C16.5642 31.9849 13.6766 31.254 11.1005 30.2955C10.741 31.6374 10.5374 33.0393 10.5374 34.4771C10.5374 35.0043 10.5493 35.5076 10.5733 36.0228L21.8961 37.7961C20.614 37.161 19.7274 35.8311 19.7274 34.3094Z" fill="#A54125"/>
<path d="M39.4735 41.9298C38.467 42.3851 37.3647 42.6247 36.1905 42.6247H27.6834C26.8567 42.6247 26.0899 42.3611 25.4548 41.9298H11.6877C13.1256 46.0635 15.9652 49.1788 20.3266 51H44.7215C49.6341 49.1548 52.5576 46.0036 53.7558 41.9298H39.4735Z" fill="#76220A"/>
<path d="M19.7274 34.3094V32.4402C16.5642 31.9849 13.6766 31.254 11.1005 30.2955C10.741 31.6374 10.5374 33.0393 10.5374 34.4771C10.5374 35.0043 10.5493 35.5076 10.5733 36.0228L21.8961 37.7961C20.614 37.161 19.7274 35.8311 19.7274 34.3094Z" stroke="#282828" stroke-miterlimit="10" stroke-linecap="round" stroke-linejoin="round"/>
<path d="M48.28 41.9298H39.4614C38.455 42.3851 37.3526 42.6247 36.1784 42.6247H27.6713C26.8446 42.6247 26.0778 42.3611 25.4427 41.9298H20.2666" stroke="#282828" stroke-miterlimit="10" stroke-linecap="round" stroke-linejoin="round"/>
<path d="M19.1404 41.9298H11.6877C13.1256 46.0635 15.9652 49.1788 20.3266 51H44.7215C49.6341 49.1548 52.5576 46.0036 53.7558 41.9298H49.3824" stroke="#282828" stroke-miterlimit="10" stroke-linecap="round" stroke-linejoin="round"/>
<path d="M14.0962 46.375C15.6418 48.34 17.7147 49.8977 20.3267 51H44.7216C47.6572 49.8977 49.8738 48.3281 51.4554 46.375H14.0962Z" fill="#641701"/>
<path d="M48.0404 46.375H46.5786" stroke="#282828" stroke-miterlimit="10" stroke-linecap="round" stroke-linejoin="round"/>
<path d="M45.4166 46.375H14.0962C15.6418 48.34 17.7147 49.8977 20.3267 51H44.7216C47.6572 49.8977 49.8738 48.3281 51.4554 46.375H48.7954" stroke="#282828" stroke-miterlimit="10" stroke-linecap="round" stroke-linejoin="round"/>
<path d="M42.2414 2.27007C39.1022 0.424879 35.9749 3.62401 32.8357 1.76684C32.8357 3.09682 32.8357 4.43878 32.8357 5.76875C35.9749 7.29044 39.1022 3.75582 42.2414 5.26552C41.5584 4.40283 40.8755 3.7678 40.1925 3.27654C40.8755 2.78529 41.5584 2.41386 42.2414 2.27007Z" fill="#282828"/>
<path d="M32.8357 1V42.6247" stroke="#282828" stroke-miterlimit="10" stroke-linecap="round" stroke-linejoin="round"/>
<path d="M39.4856 40.0966C35.0523 40.0966 30.631 40.0966 26.1978 40.0966C24.5203 35.867 24.5203 31.1582 26.1978 26.9406C30.631 26.9406 35.0523 26.9406 39.4856 26.9406C37.8081 31.1702 37.8081 35.867 39.4856 40.0966Z" fill="#D8D8D9"/>
<path d="M34.4413 30.7268C34.4413 29.3849 34.2376 28.1148 33.8781 26.9406C31.314 26.9406 28.7499 26.9406 26.1978 26.9406C24.5203 31.1702 24.5203 35.879 26.1978 40.0966C27.372 40.0966 28.5582 40.0966 29.7324 40.0966C32.5002 38.503 34.4413 34.9085 34.4413 30.7268Z" fill="white"/>
<path d="M38.0358 25.1074C34.5731 25.1074 31.1103 25.1074 27.6476 25.1074C26.749 22.8548 26.749 20.3386 27.6476 18.086C31.1103 18.086 34.5731 18.086 38.0358 18.086C37.1372 20.3386 37.1372 22.8548 38.0358 25.1074Z" fill="#D8D8D9"/>
<path d="M34.4413 19.5598C34.4413 19.0566 34.3814 18.5533 34.2615 18.086C32.0569 18.086 29.8522 18.086 27.6596 18.086C26.7609 20.3386 26.7609 22.8548 27.6596 25.1074C28.666 25.1074 29.6605 25.1074 30.667 25.1074C32.8716 24.2207 34.4413 22.076 34.4413 19.5598Z" fill="white"/>
<path d="M36.502 16.2528C34.1656 16.2528 31.8411 16.2528 29.5046 16.2528C28.9415 14.827 28.9415 13.2454 29.5046 11.8195C31.8411 11.8195 34.1656 11.8195 36.502 11.8195C35.9389 13.2454 35.9389 14.827 36.502 16.2528Z" fill="#D8D8D9"/>
<path d="M34.4411 11.8195C32.7996 11.8195 31.1461 11.8195 29.5046 11.8195C28.9415 13.2454 28.9415 14.827 29.5046 16.2528C30.1756 16.2528 30.8466 16.2528 31.5056 16.2528C33.902 15.9533 35.0282 13.5809 34.4411 11.8195Z" fill="white"/>
<path d="M26.1737 47.5492C26.8222 47.5492 27.3479 47.0235 27.3479 46.375C27.3479 45.7265 26.8222 45.2008 26.1737 45.2008C25.5252 45.2008 24.9995 45.7265 24.9995 46.375C24.9995 47.0235 25.5252 47.5492 26.1737 47.5492Z" fill="#FFFFF3"/>
<path d="M26.1737 47.5492C26.8222 47.5492 27.3479 47.0235 27.3479 46.375C27.3479 45.7265 26.8222 45.2008 26.1737 45.2008C25.5252 45.2008 24.9995 45.7265 24.9995 46.375C24.9995 47.0235 25.5252 47.5492 26.1737 47.5492Z" stroke="#282828" stroke-miterlimit="10" stroke-linecap="round" stroke-linejoin="round"/>
<path d="M31.6735 47.5492C32.322 47.5492 32.8477 47.0235 32.8477 46.375C32.8477 45.7265 32.322 45.2008 31.6735 45.2008C31.025 45.2008 30.4993 45.7265 30.4993 46.375C30.4993 47.0235 31.025 47.5492 31.6735 47.5492Z" fill="#FFFFF3"/>
<path d="M31.6735 47.5492C32.322 47.5492 32.8477 47.0235 32.8477 46.375C32.8477 45.7265 32.322 45.2008 31.6735 45.2008C31.025 45.2008 30.4993 45.7265 30.4993 46.375C30.4993 47.0235 31.025 47.5492 31.6735 47.5492Z" stroke="#282828" stroke-miterlimit="10" stroke-linecap="round" stroke-linejoin="round"/>
<path d="M37.1852 47.5492C37.8337 47.5492 38.3594 47.0235 38.3594 46.375C38.3594 45.7265 37.8337 45.2008 37.1852 45.2008C36.5367 45.2008 36.011 45.7265 36.011 46.375C36.011 47.0235 36.5367 47.5492 37.1852 47.5492Z" fill="#FFFFF3"/>
<path d="M37.1852 47.5492C37.8337 47.5492 38.3594 47.0235 38.3594 46.375C38.3594 45.7265 37.8337 45.2008 37.1852 45.2008C36.5367 45.2008 36.011 45.7265 36.011 46.375C36.011 47.0235 36.5367 47.5492 37.1852 47.5492Z" stroke="#282828" stroke-miterlimit="10" stroke-linecap="round" stroke-linejoin="round"/>
<path d="M42.6967 47.5492C43.3452 47.5492 43.8709 47.0235 43.8709 46.375C43.8709 45.7265 43.3452 45.2008 42.6967 45.2008C42.0482 45.2008 41.5225 45.7265 41.5225 46.375C41.5225 47.0235 42.0482 47.5492 42.6967 47.5492Z" fill="#FFFFF3"/>
<path d="M42.6967 47.5492C43.3452 47.5492 43.8709 47.0235 43.8709 46.375C43.8709 45.7265 43.3452 45.2008 42.6967 45.2008C42.0482 45.2008 41.5225 45.7265 41.5225 46.375C41.5225 47.0235 42.0482 47.5492 42.6967 47.5492Z" stroke="#282828" stroke-miterlimit="10" stroke-linecap="round" stroke-linejoin="round"/>
<path d="M20.6623 47.5492C21.3108 47.5492 21.8365 47.0235 21.8365 46.375C21.8365 45.7265 21.3108 45.2008 20.6623 45.2008C20.0137 45.2008 19.488 45.7265 19.488 46.375C19.488 47.0235 20.0137 47.5492 20.6623 47.5492Z" fill="#FFFFF3"/>
<path d="M20.6623 47.5492C21.3108 47.5492 21.8365 47.0235 21.8365 46.375C21.8365 45.7265 21.3108 45.2008 20.6623 45.2008C20.0137 45.2008 19.488 45.7265 19.488 46.375C19.488 47.0235 20.0137 47.5492 20.6623 47.5492Z" fill="#FFFFF3"/>
<path d="M20.6623 47.5492C21.3108 47.5492 21.8365 47.0235 21.8365 46.375C21.8365 45.7265 21.3108 45.2008 20.6623 45.2008C20.0137 45.2008 19.488 45.7265 19.488 46.375C19.488 47.0235 20.0137 47.5492 20.6623 47.5492Z" stroke="#282828" stroke-miterlimit="10" stroke-linecap="round" stroke-linejoin="round"/>
<path d="M48.7833 40.3961C49.4318 40.3961 49.9576 39.8704 49.9576 39.2219C49.9576 38.5734 49.4318 38.0477 48.7833 38.0477C48.1348 38.0477 47.6091 38.5734 47.6091 39.2219C47.6091 39.8704 48.1348 40.3961 48.7833 40.3961Z" fill="#FFFFF3"/>
<path d="M48.7833 40.3961C49.4318 40.3961 49.9576 39.8704 49.9576 39.2219C49.9576 38.5734 49.4318 38.0477 48.7833 38.0477C48.1348 38.0477 47.6091 38.5734 47.6091 39.2219C47.6091 39.8704 48.1348 40.3961 48.7833 40.3961Z" stroke="#282828" stroke-miterlimit="10" stroke-linecap="round" stroke-linejoin="round"/>
<path d="M20.3265 51H44.7214C51.3953 48.4958 54.4027 43.5833 54.4027 37.2209C54.4027 36.8255 54.3787 36.4181 54.3548 36.0227C51.0118 36.5619 47.5012 36.8735 43.8707 36.9334C42.8882 40.2403 39.8209 42.6367 36.1904 42.6367H27.6833C25.5505 42.6367 23.8252 40.9233 23.8252 38.8025V38.1795H23.5975C21.4648 38.1795 19.7394 36.4421 19.7394 34.3213V32.4522C16.5762 31.9969 13.6886 31.266 11.1125 30.3074C10.753 31.6494 10.5494 33.0513 10.5494 34.4891C10.5374 42.3851 13.6407 48.2082 20.3265 51Z" stroke="#282828" stroke-miterlimit="10" stroke-linecap="round" stroke-linejoin="round"/>
<path d="M55.8527 31.266H43.8589V36.9334H55.8527V31.266Z" fill="#F9AA68"/>
<path d="M55.8527 31.266H43.8589V36.9334H55.8527V31.266Z" stroke="#282828" stroke-miterlimit="10" stroke-linecap="round" stroke-linejoin="round"/>
<path d="M48.7833 36.9334H46.7224V34.549C46.7224 33.9858 47.1777 33.5186 47.7528 33.5186C48.316 33.5186 48.7833 33.9739 48.7833 34.549V36.9334Z" fill="#894532"/>
<path d="M52.9888 36.9334H50.928V34.549C50.928 33.9858 51.3833 33.5186 51.9584 33.5186C52.5216 33.5186 52.9888 33.9739 52.9888 34.549V36.9334Z" fill="#894532"/>
<path d="M48.7833 36.9334H46.7224V34.549C46.7224 33.9858 47.1777 33.5186 47.7528 33.5186C48.316 33.5186 48.7833 33.9739 48.7833 34.549V36.9334Z" stroke="#282828" stroke-miterlimit="10" stroke-linecap="round" stroke-linejoin="round"/>
<path d="M52.9888 36.9334H50.928V34.549C50.928 33.9858 51.3833 33.5186 51.9584 33.5186C52.5216 33.5186 52.9888 33.9739 52.9888 34.549V36.9334Z" stroke="#282828" stroke-miterlimit="10" stroke-linecap="round" stroke-linejoin="round"/>
<path d="M19.7275 31.1582L7.44616 28.1867L7.06274 29.8162L19.7275 32.8716V31.1582Z" fill="#F9AA68"/>
<path d="M19.7275 31.1582L7.44616 28.1867L7.06274 29.8162L19.7275 32.8716V31.1582Z" stroke="#282828" stroke-miterlimit="10" stroke-linecap="round" stroke-linejoin="round"/>
<path d="M49.5261 13.5809V31.266" stroke="#383838" stroke-miterlimit="10" stroke-linecap="round" stroke-linejoin="round"/>
<path d="M53.7557 29.0733C50.94 29.0733 48.1243 29.0733 45.2966 29.0733C44.2182 26.3534 44.2182 23.334 45.2966 20.6142C48.1123 20.6142 50.928 20.6142 53.7557 20.6142C52.6773 23.334 52.6773 26.3534 53.7557 29.0733Z" fill="#D8D8D9"/>
<path d="M50.8082 21.8123C50.8082 21.405 50.7842 20.9976 50.7363 20.6142C48.927 20.6142 47.1178 20.6142 45.2966 20.6142C44.2182 23.334 44.2182 26.3534 45.2966 29.0733C45.8957 29.0733 46.4947 29.0733 47.0938 29.0733C49.2985 27.6714 50.8082 24.9516 50.8082 21.8123Z" fill="white"/>
<path d="M52.8572 19.1284C50.6406 19.1284 48.424 19.1284 46.1954 19.1284C45.6442 17.7386 45.6442 16.1929 46.1954 14.815C48.412 14.815 50.6286 14.815 52.8572 14.815C52.3061 16.2049 52.3061 17.7386 52.8572 19.1284Z" fill="#D8D8D9"/>
<path d="M50.7245 14.815C49.2148 14.815 47.7051 14.815 46.1954 14.815C45.6442 16.2049 45.6442 17.7505 46.1954 19.1284C46.9622 19.1284 47.717 19.1284 48.4839 19.1284C49.7659 18.074 50.6166 16.5404 50.7245 14.815Z" fill="white"/>
<path d="M15.3181 14.3717V30.0918" stroke="#383838" stroke-miterlimit="10" stroke-linecap="round" stroke-linejoin="round"/>
<path d="M20.6622 26.9406C17.1036 26.9406 13.533 26.9406 9.97444 26.9406C8.6205 23.5018 8.6205 19.6796 9.97444 16.2528C13.533 16.2528 17.1036 16.2528 20.6622 16.2528C19.2963 19.6796 19.2963 23.5018 20.6622 26.9406Z" fill="#D8D8D9"/>
<path d="M16.9838 19.1524C16.9838 18.1339 16.7681 17.1514 16.3967 16.2528C14.2519 16.2528 12.1192 16.2528 9.97444 16.2528C8.6205 19.6916 8.6205 23.5138 9.97444 26.9406C10.238 26.9406 10.5016 26.9406 10.7652 26.9406C14.3837 25.8263 16.9838 22.7589 16.9838 19.1524Z" fill="white"/>
<path d="M7.06279 28.8816L1 27.0364" stroke="#282828" stroke-miterlimit="10" stroke-linecap="round" stroke-linejoin="round"/>
<path d="M17.3192 34.549H13.9883V37.88H17.3192V34.549Z" fill="#894532"/>
<path d="M17.3192 34.549H13.9883V37.88H17.3192V34.549Z" stroke="#282828" stroke-miterlimit="10" stroke-linecap="round" stroke-linejoin="round"/>
<path d="M3.13281 27.6834C3.13281 27.6834 14.0842 20.051 15.3183 14.815C20.2548 14.815 32.5002 10.8371 32.6679 8.3089C33.7103 10.9329 38.8505 15.5699 49.5263 13.5689" stroke="#383838" stroke-miterlimit="10"/>
<path d="M33.9141 7.24252H31.4338V9.37528H33.9141V7.24252Z" fill="#F9AA68"/>
</svg>
