<svg width="50" height="50" viewBox="0 0 50 50" fill="none" xmlns="http://www.w3.org/2000/svg">
<g clip-path="url(#clip0_113_186)">
<path d="M49.2048 9.04292C48.0938 9.53554 46.9406 9.92417 45.7573 10.2055C47.0612 8.96649 48.0416 7.41671 48.5946 5.68687C48.7525 5.19303 48.2161 4.766 47.7702 5.03041C46.124 6.00687 44.3508 6.7394 42.4996 7.20788C42.3922 7.23507 42.2814 7.24884 42.1702 7.24884C41.833 7.24884 41.5052 7.12365 41.2474 6.89641C39.2779 5.16061 36.7448 4.20463 34.115 4.20463C32.977 4.20463 31.828 4.382 30.6999 4.73187C27.2047 5.81597 24.5078 8.69915 23.6616 12.2563C23.3442 13.5906 23.2582 14.9261 23.406 16.2256C23.4229 16.3749 23.3523 16.4791 23.3088 16.528C23.2324 16.6137 23.124 16.6628 23.0115 16.6628C22.9989 16.6628 22.986 16.6622 22.9732 16.661C15.3222 15.9502 8.42287 12.2641 3.54606 6.28201C3.29737 5.97688 2.82048 6.01431 2.62226 6.3543C1.66725 7.99271 1.16257 9.86663 1.16257 11.7735C1.16257 14.6958 2.33663 17.4497 4.37599 19.4574C3.51838 19.2541 2.68833 18.9338 1.91728 18.5056C1.54425 18.2983 1.08528 18.5647 1.08004 18.9914C1.02664 23.3326 3.56836 27.1956 7.37595 28.935C7.29927 28.9369 7.22259 28.9377 7.14579 28.9377C6.54224 28.9377 5.93113 28.8794 5.32965 28.7645C4.90956 28.6843 4.55665 29.0828 4.68709 29.4901C5.92296 33.3485 9.24512 36.1925 13.2207 36.8383C9.92121 39.0532 6.07888 40.2215 2.07978 40.2215L0.833057 40.2208C0.448934 40.2208 0.124057 40.4712 0.0261669 40.8432C-0.07026 41.2097 0.107356 41.5962 0.434915 41.7868C4.94126 44.4093 10.0814 45.7954 15.3019 45.7954C19.8715 45.7954 24.146 44.8885 28.0067 43.1002C31.546 41.4607 34.6736 39.117 37.3026 36.1344C39.7516 33.3559 41.6668 30.1485 42.9946 26.6013C44.2603 23.22 44.9293 19.6121 44.9293 16.1675V16.0035C44.9292 15.4504 45.1793 14.93 45.6158 14.5757C47.2718 13.2311 48.714 11.6483 49.9019 9.87127C50.2156 9.40205 49.7209 8.81398 49.2048 9.04292Z" fill="#F2F2F2"/>
</g>
<defs>
<clipPath id="clip0_113_186">
<rect width="50" height="50" fill="white"/>
</clipPath>
</defs>
</svg>
